<svg height="511pt" viewBox="-136 1 511 511.99993" width="511pt" xmlns="http://www.w3.org/2000/svg"><path d="m31.582031 413.816406h176.855469v49.089844h-176.855469zm0 0" fill="#2c5771"/><path d="m181.078125 413.816406h27.359375v49.089844h-27.359375zm0 0" fill="#24475c"/><path d="m230.265625 512h-220.511719c-5.109375 0-9.253906-4.144531-9.253906-9.253906v-30.585938c0-5.109375 4.144531-9.253906 9.253906-9.253906h220.511719c5.109375 0 9.253906 4.144531 9.253906 9.253906v30.585938c0 5.109375-4.144531 9.253906-9.253906 9.253906zm0 0" fill="#45748c"/><path d="m229.984375 462.90625h-44.757813c5.261719 0 9.53125 4.269531 9.53125 9.535156v30.027344c0 5.261719-4.269531 9.53125-9.53125 9.53125h44.757813c5.265625 0 9.535156-4.269531 9.535156-9.53125v-30.027344c0-5.265625-4.269531-9.535156-9.535156-9.535156zm0 0" fill="#3a6175"/><path d="m228.757812 155.71875h-217.496093c-5.945313 0-10.761719 4.820312-10.761719 10.761719v236.574219c0 5.941406 4.816406 10.761718 10.761719 10.761718h217.496093c5.941407 0 10.761719-4.820312 10.761719-10.761718v-236.574219c0-5.941407-4.820312-10.761719-10.761719-10.761719zm0 0" fill="#45748c"/><path d="m228.757812 155.71875h-46.355468c5.945312 0 10.761718 4.820312 10.761718 10.761719v236.574219c0 5.941406-4.816406 10.761718-10.761718 10.761718h46.355468c5.945313 0 10.761719-4.820312 10.761719-10.761718v-236.574219c0-5.941407-4.820312-10.761719-10.761719-10.761719zm0 0" fill="#3a6175"/><path d="m120.011719.0429688c-48.40625 0-88.3125 36.3789062-93.882813 83.2851562l-.671875 28.84375v43.546875h189.105469v-61.125c0-52.21875-42.332031-94.5507812-94.550781-94.5507812zm0 0" fill="#ffbf14"/><path d="m97.863281 2.652344c41.535157 9.96875 72.40625 47.351562 72.40625 91.945312v61.121094h44.292969v-61.125c0-61.347656-57.40625-106.171875-116.699219-91.941406zm0 0" fill="#e0a812"/></svg>