<?xml version="1.0" encoding="iso-8859-1"?>
<!-- Generator: Adobe Illustrator 21.0.0, SVG Export Plug-In . SVG Version: 6.00 Build 0)  -->
<svg xmlns="http://www.w3.org/2000/svg" xmlns:xlink="http://www.w3.org/1999/xlink" version="1.1" id="Capa_1" x="0px" y="0px" viewBox="0 0 512 512" style="enable-background:new 0 0 512 512;" xml:space="preserve" width="512" height="512">
<g>
	<path style="fill:#F07F22;" d="M390.62,375.979h-62.145L144.839,61.684L146.86,0c63.944,0,128.426,25.63,173.641,70.845   c45.217,45.215,70.118,105.333,70.118,169.278V375.979z"/>
	<path style="fill:#F15B1E;" d="M320.501,70.845c-14.019-14.019-29.893-26.151-47.026-36.224v247.225l55,94.133h62.145V240.124   C390.62,176.178,365.718,116.06,320.501,70.845z"/>
	<path style="fill:#F3C86A;" d="M151.224,50.728h-6.213L32.084,163.655l12.514,41.535c4.835,16.051,16.68,28.437,32.498,33.983   c15.817,5.548,32.807,3.271,46.606-6.246l32.192-22.199h11.919c-5.007,21.718-7.548,43.928-7.548,66.306v98.945H340.62V240.123   C340.62,135.69,255.657,50.728,151.224,50.728z"/>
	<path style="fill:#F3C86A;" d="M404.183,389.438l-17.977-17.91H164.679l-17.977,17.91c-30.212,30.101-47.54,71.825-47.54,114.475   h352.561C451.723,461.263,434.395,419.538,404.183,389.438z"/>
	<path style="fill:#FDAB29;" d="M273.475,95.593v280.386h67.145V240.123C340.62,182.247,314.516,130.362,273.475,95.593z"/>
	<path style="fill:#FDAB29;" d="M273.475,503.912h178.248c0-42.649-17.328-84.374-47.54-114.475l-17.977-17.91H273.475V503.912z"/>
	<rect x="145.357" y="360.979" style="fill:#FDAB29;" width="260.292" height="30"/>
	<rect x="70.09" y="482" style="fill:#FDAB29;" width="409.825" height="30"/>
	<rect x="273.475" y="360.979" style="fill:#F07F22;" width="132.174" height="30"/>
	<rect x="273.475" y="482" style="fill:#F07F22;" width="206.44" height="30"/>
</g>















</svg>
