<svg width="600" height="600" xmlns="http://www.w3.org/2000/svg">
 <!-- Created with Method Draw - http://github.com/duopixel/Method-Draw/ -->

 <g>
  <title>background</title>
  <rect fill="none" id="canvas_background" height="602" width="602" y="-1" x="-1"/>
  <g display="none" overflow="visible" y="0" x="0" height="100%" width="100%" id="canvasGrid">
   <rect fill="url(#gridpattern)" stroke-width="0" y="0" x="0" height="100%" width="100%"/>
  </g>
 </g>
 <g>
  <title>Layer 1</title>
  <path id="svg_9" d="m310.5,173.59598" fill-opacity="null" stroke-width="1.5" fill="#003f7f"/>
  <path id="svg_41" d="m240.93898,260.13344c-0.00306,-0.12168 0.0572,-0.24123 0.15857,-0.30927c0.16528,-0.12562 0.38342,-0.18286 0.58847,-0.14827c0.10154,-0.01567 0.14648,0.08974 0.11076,0.17092c-0.05521,0.054 -0.15125,0.00264 -0.22276,0.03057c-0.23183,0.02985 -0.46067,0.13065 -0.61736,0.30774c-0.00096,-0.01895 -0.02521,-0.03157 -0.01768,-0.05168l0,0zm0.0028,0.10798c0.01234,-0.08584 0.09795,-0.13053 0.15747,-0.1827c0.20039,-0.14183 0.45158,-0.19807 0.69449,-0.18853c0.00602,0.0978 -0.04,0.19115 -0.09538,0.26863c-0.07604,0.04239 -0.17059,-0.00588 -0.2512,0.03271c-0.14137,0.03422 -0.29873,0.07734 -0.38921,0.20059c-0.03288,0.09897 -0.10237,-0.00176 -0.10775,-0.06002c-0.00764,-0.02314 -0.00658,-0.04692 -0.00844,-0.07069l0,0zm0.03881,-0.29352c0.0121,-0.1077 0.08308,-0.19675 0.1482,-0.27881c0.07341,-0.08746 0.17333,-0.15158 0.28563,-0.17506c0.08901,-0.02325 0.18074,-0.03292 0.272,-0.04268c0.06921,0.05316 0.11323,0.14559 0.10163,0.23302c-0.05375,0.01361 -0.14879,-0.03241 -0.22127,-0.02119c-0.20556,0.00194 -0.4157,0.08432 -0.55461,0.23802c-0.01157,0.01483 -0.02197,0.03055 -0.03158,0.04671l0,0zm-0.01102,0.42486c0.07687,0.06164 0.07939,0.16847 0.12662,0.24888c-0.05662,-0.07289 -0.10647,-0.15805 -0.12662,-0.24888zm0.06087,0.05872c0.02411,-0.06644 0.0997,-0.15982 0.16277,-0.15287c0.02521,0.06494 0.03613,0.13531 0.07711,0.19385c0.11003,0.20197 0.31138,0.3767 0.55075,0.3822c0.03915,0.00793 0.14292,-0.01843 0.1387,-0.00752c-0.10005,0.04914 -0.21588,0.05991 -0.32612,0.05596c-0.20473,-0.0136 -0.40865,-0.11193 -0.53173,-0.27829c-0.03483,-0.05975 -0.05463,-0.12668 -0.07149,-0.19331l0,-0.00001zm0.16851,-0.1694c0.05524,-0.02569 0.15874,-0.10384 0.20025,-0.04085c0.10131,0.19953 0.27258,0.36919 0.48343,0.44897c0.10947,0.03652 0.23263,0.03595 0.33938,-0.00963c-0.04452,0.06913 -0.1182,0.11346 -0.18763,0.15419c-0.17745,0.07574 -0.39196,0.03467 -0.54147,-0.08341c-0.14471,-0.11456 -0.25831,-0.27852 -0.29357,-0.46142l-0.00021,-0.00424l-0.00018,-0.00359l0,0l0,0zm0.07403,-0.71847c0.1343,-0.09237 0.30072,-0.1357 0.46305,-0.12419c-0.08309,0.05304 -0.18736,0.03289 -0.27847,0.0616c-0.06357,0.01384 -0.12666,0.03245 -0.18457,0.06259l0,0zm0.11596,0.65086c0.08842,-0.04185 0.18904,-0.04117 0.2846,-0.03545c0.05761,0.08973 0.09869,0.19402 0.18814,0.25871c0.10425,0.09308 0.25594,0.11936 0.38729,0.07562c0.04511,-0.03047 0.09519,-0.011 0.07055,0.04945c-0.02965,0.10037 -0.13495,0.14445 -0.23144,0.14932c-0.19741,0.01972 -0.378,-0.09243 -0.51135,-0.22789c-0.0778,-0.07789 -0.1435,-0.16871 -0.1878,-0.26975l0,0zm0.29986,-0.7463c0.07195,-0.05708 0.16994,-0.00543 0.24356,0.02189c0.07322,0.06265 0.08304,0.16689 0.10239,0.25589c0.03235,0.20891 0.01927,0.43334 -0.07845,0.62404c-0.02335,0.06685 -0.09046,0.10306 -0.13348,0.03079c-0.04999,-0.05513 -0.08821,-0.11928 -0.12428,-0.18386c-0.02133,-0.0618 0.0485,-0.10536 0.06312,-0.16187c0.02849,-0.05634 0.03574,-0.1197 0.03894,-0.18136c0.01343,-0.09224 0.00022,-0.18793 -0.02404,-0.27724c-0.01701,-0.04942 -0.04464,-0.09728 -0.08776,-0.12828l0,0zm0.2068,0.98667c0.14164,-0.16002 0.16409,-0.38724 0.15343,-0.59181c-0.00649,-0.12061 -0.02483,-0.24525 -0.08843,-0.35029c0.06572,0.00204 0.13641,0.06377 0.18791,0.10923c0.14595,0.18557 0.18887,0.45704 0.07791,0.67026c-0.04365,0.08622 -0.10277,0.16404 -0.17217,0.23115c-0.0581,-0.00477 -0.11699,-0.02676 -0.15865,-0.06854l0,0zm0.16152,0.06947c0.15253,-0.14702 0.263,-0.35831 0.23003,-0.57497c-0.01312,-0.10147 -0.05017,-0.1995 -0.10566,-0.28534c0.10162,0.06333 0.15813,0.17549 0.20896,0.27969c0.07306,0.18211 0.03334,0.40408 -0.09723,0.54963c-0.06705,0.03803 -0.16167,0.04385 -0.2361,0.03098zm0.25112,-0.034c0.05233,-0.09141 0.1117,-0.18407 0.11715,-0.29251c0.00813,-0.03626 -0.00448,0.07114 -0.00886,0.09374c-0.01392,0.0798 -0.03209,0.16497 -0.08155,0.23008c-0.01138,-0.00631 -0.0063,-0.03705 -0.02675,-0.03131l0,0z" fill-opacity="null" stroke-opacity="null" stroke-width="0" stroke="null" fill="#bccad3"/>
  <!-- Created with Method Draw - http://github.com/duopixel/Method-Draw/ -->
  <g stroke="null" id="svg_274">
   <polygon stroke="null" id="svg_251" fill="#EFEEEE" points="142.9862322807312,67.33630084991455 142.9862322807312,524.0922327041626 397.76046323776245,524.0922327041626 506.9493670463562,409.90332889556885 506.9493670463562,67.33630084991455 "/>
   <polygon stroke="null" id="svg_252" fill="#ABABAB" points="397.76046323776245,409.90332889556885 397.76046323776245,524.0922327041626 506.9493670463562,409.90332889556885 "/>
   <polygon stroke="null" id="svg_253" fill="#DEDEDD" points="288.5715899467468,524.0922327041626 397.76046323776245,524.0922327041626 397.76046323776245,409.90332889556885 "/>
   <path stroke="null" id="svg_254" fill="#CB5641" d="m70.19344,181.52533l0,133.22052l291.1707,0l0,-133.22052l-291.1707,0z"/>
   <g stroke="null" transform="matrix(1.137385557364197,0,0,1.1894689217335217,-2268.597622632825,-2383.1782267944927) " id="svg_255">
    <path stroke="null" id="svg_256" fill="#FFFFFF" d="m2120.60702,2190.28743c-1.184,-2.288 -3.344,-3.424 -6.48,-3.424c-1.728,0 -3.152,0.464 -4.272,1.408c-1.12,0.928 -2,2.416 -2.64,4.496s-1.088,4.8 -1.344,8.176c-0.272,3.36 -0.384,7.472 -0.384,12.336c0,5.184 0.176,9.376 0.528,12.576c0.336,3.2 0.896,5.664 1.632,7.44s1.664,2.96 2.784,3.552c1.12,0.608 2.416,0.928 3.888,0.928c1.216,0 2.352,-0.208 3.408,-0.624s1.968,-1.248 2.736,-2.496c0.784,-1.248 1.392,-3.008 1.824,-5.28c0.448,-2.272 0.672,-5.264 0.672,-8.976l13.808,0c0,3.696 -0.288,7.232 -0.864,10.56s-1.664,6.24 -3.216,8.736c-1.584,2.48 -3.776,4.432 -6.624,5.84c-2.848,1.408 -6.544,2.128 -11.088,2.128c-5.168,0 -9.312,-0.848 -12.368,-2.496c-3.072,-1.664 -5.424,-4.064 -7.056,-7.2s-2.688,-6.88 -3.168,-11.232c-0.464,-4.336 -0.72,-9.152 -0.72,-14.384c0,-5.184 0.256,-9.968 0.72,-14.352c0.48,-4.368 1.552,-8.144 3.168,-11.28c1.648,-3.12 3.984,-5.584 7.056,-7.344c3.056,-1.744 7.2,-2.64 12.368,-2.64c4.944,0 8.816,0.8 11.664,2.4c2.848,1.6 4.976,3.632 6.368,6.096s2.304,5.12 2.64,7.968c0.352,2.848 0.528,5.52 0.528,8.016l-13.808,0c0,-5.04 -0.592,-8.672 -1.76,-10.928z"/>
    <path stroke="null" id="svg_257" fill="#FFFFFF" d="m2178.43102,2178.03143c3.52,0 6.48,0.592 8.896,1.776c2.384,1.184 4.336,2.736 5.792,4.656c1.456,1.92 2.528,4.112 3.168,6.576c0.64,2.448 0.96,4.976 0.96,7.536c0,3.52 -0.512,6.592 -1.584,9.216c-1.04,2.624 -2.528,4.768 -4.416,6.416c-1.872,1.664 -4.176,2.928 -6.864,3.744c-2.688,0.816 -5.664,1.264 -8.928,1.264l-7.392,0l0,27.36l-13.824,0l0,-68.544l24.192,0zm-4.224,31.04c2.752,0 4.976,-0.848 6.672,-2.512c1.68,-1.664 2.544,-4.256 2.544,-7.776c0,-3.456 -0.736,-6.08 -2.224,-7.872c-1.472,-1.776 -3.92,-2.688 -7.392,-2.688l-5.744,0l0,20.848l6.144,0l0,0z"/>
    <path stroke="null" id="svg_258" fill="#FFFFFF" d="m2237.87102,2178.01543c3.52,0 6.464,0.608 8.88,1.792s4.336,2.736 5.808,4.656c1.472,1.92 2.528,4.112 3.168,6.576c0.624,2.448 0.96,4.976 0.96,7.536c0,3.52 -0.528,6.592 -1.584,9.216c-1.056,2.624 -2.528,4.768 -4.416,6.416c-1.888,1.664 -4.176,2.928 -6.864,3.744c-2.688,0.816 -5.664,1.248 -8.944,1.248l-7.392,0l0,27.36l-13.824,0l0,-68.544l24.208,0l0,0zm-4.24,31.056c2.752,0 4.992,-0.848 6.672,-2.512c1.696,-1.664 2.544,-4.256 2.544,-7.776c0,-3.456 -0.736,-6.08 -2.208,-7.872c-1.472,-1.776 -3.936,-2.688 -7.392,-2.688l-5.76,0l0,20.848l6.144,0l0,0z"/>
   </g>
   <g stroke="null" transform="matrix(1.137385557364197,0,0,1.1894689217335217,-2268.597622632825,-2383.1782267944927) " id="svg_259"/>
   <g stroke="null" transform="matrix(1.137385557364197,0,0,1.1894689217335217,-2268.597622632825,-2383.1782267944927) " id="svg_260"/>
   <g stroke="null" transform="matrix(1.137385557364197,0,0,1.1894689217335217,-2268.597622632825,-2383.1782267944927) " id="svg_261"/>
   <g stroke="null" transform="matrix(1.137385557364197,0,0,1.1894689217335217,-2268.597622632825,-2383.1782267944927) " id="svg_262"/>
   <g stroke="null" transform="matrix(1.137385557364197,0,0,1.1894689217335217,-2268.597622632825,-2383.1782267944927) " id="svg_263"/>
   <g stroke="null" transform="matrix(1.137385557364197,0,0,1.1894689217335217,-2268.597622632825,-2383.1782267944927) " id="svg_264"/>
   <g stroke="null" transform="matrix(1.137385557364197,0,0,1.1894689217335217,-2268.597622632825,-2383.1782267944927) " id="svg_265"/>
   <g stroke="null" transform="matrix(1.137385557364197,0,0,1.1894689217335217,-2268.597622632825,-2383.1782267944927) " id="svg_266"/>
   <g stroke="null" transform="matrix(1.137385557364197,0,0,1.1894689217335217,-2268.597622632825,-2383.1782267944927) " id="svg_267"/>
   <g stroke="null" transform="matrix(1.137385557364197,0,0,1.1894689217335217,-2268.597622632825,-2383.1782267944927) " id="svg_268"/>
   <g stroke="null" transform="matrix(1.137385557364197,0,0,1.1894689217335217,-2268.597622632825,-2383.1782267944927) " id="svg_269"/>
   <g stroke="null" transform="matrix(1.137385557364197,0,0,1.1894689217335217,-2268.597622632825,-2383.1782267944927) " id="svg_270"/>
   <g stroke="null" transform="matrix(1.137385557364197,0,0,1.1894689217335217,-2268.597622632825,-2383.1782267944927) " id="svg_271"/>
   <g stroke="null" transform="matrix(1.137385557364197,0,0,1.1894689217335217,-2268.597622632825,-2383.1782267944927) " id="svg_272"/>
   <g stroke="null" transform="matrix(1.137385557364197,0,0,1.1894689217335217,-2268.597622632825,-2383.1782267944927) " id="svg_273"/>
  </g>
 </g>
</svg>