<svg width="600" height="600" xmlns="http://www.w3.org/2000/svg">
 <!-- Created with Method Draw - http://github.com/duopixel/Method-Draw/ -->

 <g>
  <title>background</title>
  <rect fill="none" id="canvas_background" height="602" width="602" y="-1" x="-1"/>
  <g display="none" overflow="visible" y="0" x="0" height="100%" width="100%" id="canvasGrid">
   <rect fill="url(#gridpattern)" stroke-width="0" y="0" x="0" height="100%" width="100%"/>
  </g>
 </g>
 <g>
  <title>Layer 1</title>
  <path id="svg_9" d="m310.5,173.59598" fill-opacity="null" stroke-width="1.5" fill="#003f7f"/>
  <path id="svg_41" d="m240.93898,260.13344c-0.00306,-0.12168 0.0572,-0.24123 0.15857,-0.30927c0.16528,-0.12562 0.38342,-0.18286 0.58847,-0.14827c0.10154,-0.01567 0.14648,0.08974 0.11076,0.17092c-0.05521,0.054 -0.15125,0.00264 -0.22276,0.03057c-0.23183,0.02985 -0.46067,0.13065 -0.61736,0.30774c-0.00096,-0.01895 -0.02521,-0.03157 -0.01768,-0.05168l0,0zm0.0028,0.10798c0.01234,-0.08584 0.09795,-0.13053 0.15747,-0.1827c0.20039,-0.14183 0.45158,-0.19807 0.69449,-0.18853c0.00602,0.0978 -0.04,0.19115 -0.09538,0.26863c-0.07604,0.04239 -0.17059,-0.00588 -0.2512,0.03271c-0.14137,0.03422 -0.29873,0.07734 -0.38921,0.20059c-0.03288,0.09897 -0.10237,-0.00176 -0.10775,-0.06002c-0.00764,-0.02314 -0.00658,-0.04692 -0.00844,-0.07069l0,0zm0.03881,-0.29352c0.0121,-0.1077 0.08308,-0.19675 0.1482,-0.27881c0.07341,-0.08746 0.17333,-0.15158 0.28563,-0.17506c0.08901,-0.02325 0.18074,-0.03292 0.272,-0.04268c0.06921,0.05316 0.11323,0.14559 0.10163,0.23302c-0.05375,0.01361 -0.14879,-0.03241 -0.22127,-0.02119c-0.20556,0.00194 -0.4157,0.08432 -0.55461,0.23802c-0.01157,0.01483 -0.02197,0.03055 -0.03158,0.04671l0,0zm-0.01102,0.42486c0.07687,0.06164 0.07939,0.16847 0.12662,0.24888c-0.05662,-0.07289 -0.10647,-0.15805 -0.12662,-0.24888zm0.06087,0.05872c0.02411,-0.06644 0.0997,-0.15982 0.16277,-0.15287c0.02521,0.06494 0.03613,0.13531 0.07711,0.19385c0.11003,0.20197 0.31138,0.3767 0.55075,0.3822c0.03915,0.00793 0.14292,-0.01843 0.1387,-0.00752c-0.10005,0.04914 -0.21588,0.05991 -0.32612,0.05596c-0.20473,-0.0136 -0.40865,-0.11193 -0.53173,-0.27829c-0.03483,-0.05975 -0.05463,-0.12668 -0.07149,-0.19331l0,-0.00001zm0.16851,-0.1694c0.05524,-0.02569 0.15874,-0.10384 0.20025,-0.04085c0.10131,0.19953 0.27258,0.36919 0.48343,0.44897c0.10947,0.03652 0.23263,0.03595 0.33938,-0.00963c-0.04452,0.06913 -0.1182,0.11346 -0.18763,0.15419c-0.17745,0.07574 -0.39196,0.03467 -0.54147,-0.08341c-0.14471,-0.11456 -0.25831,-0.27852 -0.29357,-0.46142l-0.00021,-0.00424l-0.00018,-0.00359l0,0l0,0zm0.07403,-0.71847c0.1343,-0.09237 0.30072,-0.1357 0.46305,-0.12419c-0.08309,0.05304 -0.18736,0.03289 -0.27847,0.0616c-0.06357,0.01384 -0.12666,0.03245 -0.18457,0.06259l0,0zm0.11596,0.65086c0.08842,-0.04185 0.18904,-0.04117 0.2846,-0.03545c0.05761,0.08973 0.09869,0.19402 0.18814,0.25871c0.10425,0.09308 0.25594,0.11936 0.38729,0.07562c0.04511,-0.03047 0.09519,-0.011 0.07055,0.04945c-0.02965,0.10037 -0.13495,0.14445 -0.23144,0.14932c-0.19741,0.01972 -0.378,-0.09243 -0.51135,-0.22789c-0.0778,-0.07789 -0.1435,-0.16871 -0.1878,-0.26975l0,0zm0.29986,-0.7463c0.07195,-0.05708 0.16994,-0.00543 0.24356,0.02189c0.07322,0.06265 0.08304,0.16689 0.10239,0.25589c0.03235,0.20891 0.01927,0.43334 -0.07845,0.62404c-0.02335,0.06685 -0.09046,0.10306 -0.13348,0.03079c-0.04999,-0.05513 -0.08821,-0.11928 -0.12428,-0.18386c-0.02133,-0.0618 0.0485,-0.10536 0.06312,-0.16187c0.02849,-0.05634 0.03574,-0.1197 0.03894,-0.18136c0.01343,-0.09224 0.00022,-0.18793 -0.02404,-0.27724c-0.01701,-0.04942 -0.04464,-0.09728 -0.08776,-0.12828l0,0zm0.2068,0.98667c0.14164,-0.16002 0.16409,-0.38724 0.15343,-0.59181c-0.00649,-0.12061 -0.02483,-0.24525 -0.08843,-0.35029c0.06572,0.00204 0.13641,0.06377 0.18791,0.10923c0.14595,0.18557 0.18887,0.45704 0.07791,0.67026c-0.04365,0.08622 -0.10277,0.16404 -0.17217,0.23115c-0.0581,-0.00477 -0.11699,-0.02676 -0.15865,-0.06854l0,0zm0.16152,0.06947c0.15253,-0.14702 0.263,-0.35831 0.23003,-0.57497c-0.01312,-0.10147 -0.05017,-0.1995 -0.10566,-0.28534c0.10162,0.06333 0.15813,0.17549 0.20896,0.27969c0.07306,0.18211 0.03334,0.40408 -0.09723,0.54963c-0.06705,0.03803 -0.16167,0.04385 -0.2361,0.03098zm0.25112,-0.034c0.05233,-0.09141 0.1117,-0.18407 0.11715,-0.29251c0.00813,-0.03626 -0.00448,0.07114 -0.00886,0.09374c-0.01392,0.0798 -0.03209,0.16497 -0.08155,0.23008c-0.01138,-0.00631 -0.0063,-0.03705 -0.02675,-0.03131l0,0z" fill-opacity="null" stroke-opacity="null" stroke-width="0" stroke="null" fill="#bccad3"/>
  <!-- Created with Method Draw - http://github.com/duopixel/Method-Draw/ -->
  <g stroke="null" id="svg_307">
   <path stroke="null" id="svg_279" fill="#5C5E70" d="m537.71206,302.85699c0,16.80805 -1.97314,33.16635 -5.70168,48.88534c-5.79654,24.42458 -15.84021,47.30948 -29.35855,67.90856c-0.5755,0.88228 -1.16093,1.76455 -1.75541,2.64683c-41.16936,60.84949 -112.88622,101.12833 -194.46785,101.12833s-153.29849,-40.27884 -194.46695,-101.12833c-17.90821,-26.45019 -30.03885,-56.78964 -34.69252,-89.40715c-1.07601,-7.52606 -1.74637,-15.17877 -2.00114,-22.93918c-0.08492,-2.35905 -0.12287,-4.71725 -0.12287,-7.0944c0,-21.45379 3.20996,-42.18728 9.19442,-61.79552c2.39776,-7.8414 5.23911,-15.50273 8.50599,-22.95727c5.29603,-12.1537 11.71505,-23.74908 19.11612,-34.68793c41.16846,-60.84949 112.88531,-101.12833 194.46695,-101.12833s153.29849,40.27884 194.46695,101.12833c9.36427,13.83726 17.15292,28.73687 23.11931,44.47396c2.82238,7.47264 5.24905,15.13397 7.23122,22.95727c1.90719,7.50796 3.40782,15.17015 4.47479,22.95727c1.048,7.53553 1.68042,15.19686 1.90719,22.95727c0.05601,2.02562 0.08402,4.05123 0.08402,6.09494z"/>
   <path stroke="null" id="svg_280" fill="#F9EED7" d="m500.89552,192.36568l0,229.93204c-41.16846,60.84949 -112.88531,101.12833 -194.46695,101.12833s-153.29849,-40.27884 -194.46695,-101.12833l0,-320.36535c0,-10.84838 9.22333,-19.64443 20.59869,-19.64443l252.9112,0l115.42401,110.07774z"/>
   <path stroke="null" id="svg_281" fill="#E8DBC4" d="m385.47061,172.71953l0,-90.43159l115.42491,110.07774l-94.82442,0c-11.37716,0 -20.60049,-8.79605 -20.60049,-19.64615z"/>
   <g stroke="null" transform="matrix(0.9034511017532156,0,0,0.8615978596414834,-3354.281169889191,-3205.079082569107) " id="svg_282">
    <path stroke="null" id="svg_283" fill="#FF525D" d="m4267.167,4146.39186l0,63.666c-45.568,70.624 -124.949,117.373 -215.249,117.373s-169.681,-46.749 -215.249,-117.373l0,-63.666l430.498,0l0,0z"/>
    <path stroke="null" id="svg_284" fill="#FF525D" d="m3946.423,4005.39586l43.046,-27.963c0.847,-0.678 2.033,-0.848 3.219,-0.848c5.084,0 11.524,5.424 11.524,12.372c0,2.881 -1.186,5.422 -3.051,6.609l-29.827,19.319l29.827,19.32c1.864,1.186 3.051,3.728 3.051,6.609c0,6.949 -6.44,12.371 -11.524,12.371c-1.186,0 -2.373,-0.169 -3.219,-0.847l-43.046,-27.963c-3.897,-2.542 -5.253,-6.609 -5.253,-9.491c-0.001,-2.879 1.356,-6.946 5.253,-9.488z"/>
    <path stroke="null" id="svg_285" fill="#FF525D" d="m4090.64,3939.98086c0,1.018 -0.169,2.203 -0.678,3.219l-59.654,122.186c-1.186,2.542 -4.406,4.236 -7.626,4.236c-5.762,0 -9.489,-4.745 -9.489,-8.982c0,-1.016 0.339,-2.203 0.847,-3.219l59.483,-122.185c1.355,-2.882 4.067,-4.237 7.118,-4.237c4.746,0 9.999,3.559 9.999,8.982z"/>
    <path stroke="null" id="svg_286" fill="#FF525D" d="m4157.413,4024.37486l-43.044,27.963c-0.848,0.678 -2.034,0.847 -3.219,0.847c-5.084,0 -11.524,-5.422 -11.524,-12.371c0,-2.881 1.185,-5.422 3.049,-6.609l29.827,-19.32l-29.827,-19.319c-1.864,-1.186 -3.049,-3.728 -3.049,-6.609c0,-6.949 6.44,-12.372 11.524,-12.372c1.185,0 2.372,0.17 3.219,0.848l43.044,27.963c3.897,2.542 5.253,6.609 5.253,9.489c0.001,2.881 -1.356,6.948 -5.253,9.49z"/>
   </g>
   <g stroke="null" transform="matrix(0.9034511017532156,0,0,0.8615978596414834,-3354.281169889191,-3205.079082569107) " id="svg_287">
    <path stroke="null" id="svg_288" fill="#F9EED7" d="m3958.589,4230.11886l-23.71,0l0,32.288c0,3.813 -4.647,5.72 -9.294,5.72s-9.294,-1.906 -9.294,-5.72l0,-75.778c0,-3.932 4.647,-5.6 9.294,-5.6c4.648,0 9.294,1.668 9.294,5.6l0,29.191l23.71,0l0,-29.191c0,-3.932 4.647,-5.6 9.294,-5.6s9.294,1.668 9.294,5.6l0,75.778c0,3.813 -4.647,5.72 -9.294,5.72s-9.294,-1.906 -9.294,-5.72l0,-32.288z"/>
    <path stroke="null" id="svg_289" fill="#F9EED7" d="m4047.593,4181.02886c3.932,0 5.6,4.289 5.6,8.221c0,4.528 -2.025,8.46 -5.6,8.46l-16.443,0l0,64.697c0,3.813 -4.647,5.72 -9.294,5.72c-4.646,0 -9.293,-1.906 -9.293,-5.72l0,-64.697l-16.443,0c-3.575,0 -5.6,-3.932 -5.6,-8.46c0,-3.932 1.669,-8.221 5.6,-8.221l51.473,0z"/>
    <path stroke="null" id="svg_290" fill="#F9EED7" d="m4108.477,4237.26686c-1.549,2.622 -3.932,3.455 -6.196,3.455c-2.145,0 -4.408,-0.715 -5.838,-3.455l-11.319,-20.732l0,45.872c0,3.813 -4.647,5.72 -9.294,5.72s-9.294,-1.906 -9.294,-5.72l0,-72.084c0,-6.792 4.647,-9.293 9.294,-9.293c6.673,0 9.532,0.715 14.418,9.293l12.272,21.447l12.271,-21.447c4.886,-8.579 7.745,-9.293 14.418,-9.293c4.767,0 9.294,2.503 9.294,9.293l0,72.084c0,3.813 -4.647,5.72 -9.294,5.72s-9.294,-1.906 -9.294,-5.72l0,-44.681l-11.438,19.541z"/>
    <path stroke="null" id="svg_291" fill="#F9EED7" d="m4165.429,4268.12686c-4.051,0 -8.102,-1.906 -8.102,-5.72l0,-75.778c0,-3.932 4.647,-5.6 9.294,-5.6s9.294,1.668 9.294,5.6l0,65.294l27.165,0c3.575,0 5.362,4.051 5.362,8.102s-1.788,8.102 -5.362,8.102l-37.651,0z"/>
   </g>
   <g stroke="null" transform="matrix(0.9034511017532156,0,0,0.8615978596414834,-3354.281169889191,-3205.079082569107) " id="svg_292"/>
   <g stroke="null" transform="matrix(0.9034511017532156,0,0,0.8615978596414834,-3354.281169889191,-3205.079082569107) " id="svg_293"/>
   <g stroke="null" transform="matrix(0.9034511017532156,0,0,0.8615978596414834,-3354.281169889191,-3205.079082569107) " id="svg_294"/>
   <g stroke="null" transform="matrix(0.9034511017532156,0,0,0.8615978596414834,-3354.281169889191,-3205.079082569107) " id="svg_295"/>
   <g stroke="null" transform="matrix(0.9034511017532156,0,0,0.8615978596414834,-3354.281169889191,-3205.079082569107) " id="svg_296"/>
   <g stroke="null" transform="matrix(0.9034511017532156,0,0,0.8615978596414834,-3354.281169889191,-3205.079082569107) " id="svg_297"/>
   <g stroke="null" transform="matrix(0.9034511017532156,0,0,0.8615978596414834,-3354.281169889191,-3205.079082569107) " id="svg_298"/>
   <g stroke="null" transform="matrix(0.9034511017532156,0,0,0.8615978596414834,-3354.281169889191,-3205.079082569107) " id="svg_299"/>
   <g stroke="null" transform="matrix(0.9034511017532156,0,0,0.8615978596414834,-3354.281169889191,-3205.079082569107) " id="svg_300"/>
   <g stroke="null" transform="matrix(0.9034511017532156,0,0,0.8615978596414834,-3354.281169889191,-3205.079082569107) " id="svg_301"/>
   <g stroke="null" transform="matrix(0.9034511017532156,0,0,0.8615978596414834,-3354.281169889191,-3205.079082569107) " id="svg_302"/>
   <g stroke="null" transform="matrix(0.9034511017532156,0,0,0.8615978596414834,-3354.281169889191,-3205.079082569107) " id="svg_303"/>
   <g stroke="null" transform="matrix(0.9034511017532156,0,0,0.8615978596414834,-3354.281169889191,-3205.079082569107) " id="svg_304"/>
   <g stroke="null" transform="matrix(0.9034511017532156,0,0,0.8615978596414834,-3354.281169889191,-3205.079082569107) " id="svg_305"/>
   <g stroke="null" transform="matrix(0.9034511017532156,0,0,0.8615978596414834,-3354.281169889191,-3205.079082569107) " id="svg_306"/>
  </g>
 </g>
</svg>