<svg width="600" height="600" xmlns="http://www.w3.org/2000/svg">
 <!-- Created with Method Draw - http://github.com/duopixel/Method-Draw/ -->

 <g>
  <title>background</title>
  <rect fill="none" id="canvas_background" height="602" width="602" y="-1" x="-1"/>
  <g display="none" overflow="visible" y="0" x="0" height="100%" width="100%" id="canvasGrid">
   <rect fill="url(#gridpattern)" stroke-width="0" y="0" x="0" height="100%" width="100%"/>
  </g>
 </g>
 <g>
  <title>Layer 1</title>
  <path id="svg_9" d="m310.5,173.59598" fill-opacity="null" stroke-width="1.5" fill="#003f7f"/>
  <path id="svg_41" d="m240.93898,260.13344c-0.00306,-0.12168 0.0572,-0.24123 0.15857,-0.30927c0.16528,-0.12562 0.38342,-0.18286 0.58847,-0.14827c0.10154,-0.01567 0.14648,0.08974 0.11076,0.17092c-0.05521,0.054 -0.15125,0.00264 -0.22276,0.03057c-0.23183,0.02985 -0.46067,0.13065 -0.61736,0.30774c-0.00096,-0.01895 -0.02521,-0.03157 -0.01768,-0.05168l0,0zm0.0028,0.10798c0.01234,-0.08584 0.09795,-0.13053 0.15747,-0.1827c0.20039,-0.14183 0.45158,-0.19807 0.69449,-0.18853c0.00602,0.0978 -0.04,0.19115 -0.09538,0.26863c-0.07604,0.04239 -0.17059,-0.00588 -0.2512,0.03271c-0.14137,0.03422 -0.29873,0.07734 -0.38921,0.20059c-0.03288,0.09897 -0.10237,-0.00176 -0.10775,-0.06002c-0.00764,-0.02314 -0.00658,-0.04692 -0.00844,-0.07069l0,0zm0.03881,-0.29352c0.0121,-0.1077 0.08308,-0.19675 0.1482,-0.27881c0.07341,-0.08746 0.17333,-0.15158 0.28563,-0.17506c0.08901,-0.02325 0.18074,-0.03292 0.272,-0.04268c0.06921,0.05316 0.11323,0.14559 0.10163,0.23302c-0.05375,0.01361 -0.14879,-0.03241 -0.22127,-0.02119c-0.20556,0.00194 -0.4157,0.08432 -0.55461,0.23802c-0.01157,0.01483 -0.02197,0.03055 -0.03158,0.04671l0,0zm-0.01102,0.42486c0.07687,0.06164 0.07939,0.16847 0.12662,0.24888c-0.05662,-0.07289 -0.10647,-0.15805 -0.12662,-0.24888zm0.06087,0.05872c0.02411,-0.06644 0.0997,-0.15982 0.16277,-0.15287c0.02521,0.06494 0.03613,0.13531 0.07711,0.19385c0.11003,0.20197 0.31138,0.3767 0.55075,0.3822c0.03915,0.00793 0.14292,-0.01843 0.1387,-0.00752c-0.10005,0.04914 -0.21588,0.05991 -0.32612,0.05596c-0.20473,-0.0136 -0.40865,-0.11193 -0.53173,-0.27829c-0.03483,-0.05975 -0.05463,-0.12668 -0.07149,-0.19331l0,-0.00001zm0.16851,-0.1694c0.05524,-0.02569 0.15874,-0.10384 0.20025,-0.04085c0.10131,0.19953 0.27258,0.36919 0.48343,0.44897c0.10947,0.03652 0.23263,0.03595 0.33938,-0.00963c-0.04452,0.06913 -0.1182,0.11346 -0.18763,0.15419c-0.17745,0.07574 -0.39196,0.03467 -0.54147,-0.08341c-0.14471,-0.11456 -0.25831,-0.27852 -0.29357,-0.46142l-0.00021,-0.00424l-0.00018,-0.00359l0,0l0,0zm0.07403,-0.71847c0.1343,-0.09237 0.30072,-0.1357 0.46305,-0.12419c-0.08309,0.05304 -0.18736,0.03289 -0.27847,0.0616c-0.06357,0.01384 -0.12666,0.03245 -0.18457,0.06259l0,0zm0.11596,0.65086c0.08842,-0.04185 0.18904,-0.04117 0.2846,-0.03545c0.05761,0.08973 0.09869,0.19402 0.18814,0.25871c0.10425,0.09308 0.25594,0.11936 0.38729,0.07562c0.04511,-0.03047 0.09519,-0.011 0.07055,0.04945c-0.02965,0.10037 -0.13495,0.14445 -0.23144,0.14932c-0.19741,0.01972 -0.378,-0.09243 -0.51135,-0.22789c-0.0778,-0.07789 -0.1435,-0.16871 -0.1878,-0.26975l0,0zm0.29986,-0.7463c0.07195,-0.05708 0.16994,-0.00543 0.24356,0.02189c0.07322,0.06265 0.08304,0.16689 0.10239,0.25589c0.03235,0.20891 0.01927,0.43334 -0.07845,0.62404c-0.02335,0.06685 -0.09046,0.10306 -0.13348,0.03079c-0.04999,-0.05513 -0.08821,-0.11928 -0.12428,-0.18386c-0.02133,-0.0618 0.0485,-0.10536 0.06312,-0.16187c0.02849,-0.05634 0.03574,-0.1197 0.03894,-0.18136c0.01343,-0.09224 0.00022,-0.18793 -0.02404,-0.27724c-0.01701,-0.04942 -0.04464,-0.09728 -0.08776,-0.12828l0,0zm0.2068,0.98667c0.14164,-0.16002 0.16409,-0.38724 0.15343,-0.59181c-0.00649,-0.12061 -0.02483,-0.24525 -0.08843,-0.35029c0.06572,0.00204 0.13641,0.06377 0.18791,0.10923c0.14595,0.18557 0.18887,0.45704 0.07791,0.67026c-0.04365,0.08622 -0.10277,0.16404 -0.17217,0.23115c-0.0581,-0.00477 -0.11699,-0.02676 -0.15865,-0.06854l0,0zm0.16152,0.06947c0.15253,-0.14702 0.263,-0.35831 0.23003,-0.57497c-0.01312,-0.10147 -0.05017,-0.1995 -0.10566,-0.28534c0.10162,0.06333 0.15813,0.17549 0.20896,0.27969c0.07306,0.18211 0.03334,0.40408 -0.09723,0.54963c-0.06705,0.03803 -0.16167,0.04385 -0.2361,0.03098zm0.25112,-0.034c0.05233,-0.09141 0.1117,-0.18407 0.11715,-0.29251c0.00813,-0.03626 -0.00448,0.07114 -0.00886,0.09374c-0.01392,0.0798 -0.03209,0.16497 -0.08155,0.23008c-0.01138,-0.00631 -0.0063,-0.03705 -0.02675,-0.03131l0,0z" fill-opacity="null" stroke-opacity="null" stroke-width="0" stroke="null" fill="#bccad3"/>
  <!-- Created with Method Draw - http://github.com/duopixel/Method-Draw/ -->
  <g stroke="null" id="svg_215">
   <g stroke="null" transform="matrix(0.8552020994432561,0,0,0.8698221831806155,-4442.8550819551865,-4508.0385735124255) " id="svg_212">
    <title stroke="null" transform="translate(207.1356658935547,-252.92526245117188) translate(-223.8401641845703,264.421875) translate(21.715835571289062,-4.927115440368652) translate(25.661069869995117,14.122401237487793) translate(5209.7041015625,0) translate(0,5215.81005859375) ">background</title>
    <rect stroke="null" x="5239.37651" y="5235.50196" width="602" height="602" id="svg_210" fill="none"/>
    <g stroke="null" id="svg_209" display="none">
     <rect stroke="null" id="svg_213" width="600" height="600" x="5240.37651" y="5236.50196" stroke-width="0" fill="url(#gridpattern)"/>
    </g>
   </g>
   <g stroke="null" transform="matrix(0.8552020994432561,0,0,0.8698221831806155,-4442.8550819551865,-4508.0385735124255) " id="svg_214">
    <title stroke="null" transform="translate(207.1356658935547,-252.92526245117188) translate(-223.8401641845703,264.421875) translate(21.715835571289062,-4.927115440368652) translate(25.661069869995117,14.122401237487793) translate(5209.7041015625,0) translate(0,5215.81005859375) ">Layer 1</title>
    <path stroke="null" fill="none" stroke-width="1.5" stroke-opacity="null" fill-opacity="null" d="m5423.87651,5480.09794c160,103 -103,-27 159,103c262,130 -327,-207 -327.5,-207.45313c0.5,0.45313 587.5,338.45313 587,338c0.5,0.45313 -578.5,-336.54688 -418.5,-233.54688l0,0.00001z" id="svg_208"/>
    <path stroke="null" fill="#003f7f" stroke-width="1.5" fill-opacity="null" d="m5550.87651,5410.09794" id="svg_207"/>
    <path stroke="null" fill="none" stroke-width="0" stroke-opacity="null" fill-opacity="null" d="m5261.24044,5490.39848c58.70641,-98.53923 164.55095,-182.64253 254.59551,-266.10933c104.74764,53.56372 195.24372,171.40295 273.97593,253.47543c-70.22385,94.93139 -171.30968,181.38793 -262.37471,266.5246c-98.16975,-77.89208 -182.12086,-166.88533 -266.19671,-253.8907l-0.00002,0z" id="svg_206"/>
    <path stroke="null" fill="#bccad3" stroke-width="0" stroke-opacity="null" fill-opacity="null" d="m5481.31549,5496.6354c-0.00306,-0.12168 0.0572,-0.24123 0.15857,-0.30927c0.16528,-0.12562 0.38342,-0.18286 0.58847,-0.14827c0.10154,-0.01567 0.14648,0.08974 0.11076,0.17092c-0.05521,0.054 -0.15125,0.00264 -0.22276,0.03057c-0.23183,0.02985 -0.46067,0.13065 -0.61736,0.30774c-0.00096,-0.01895 -0.02521,-0.03157 -0.01768,-0.05168l0,0l0,-0.00001zm0.0028,0.10798c0.01234,-0.08584 0.09795,-0.13053 0.15747,-0.1827c0.20039,-0.14183 0.45158,-0.19807 0.69449,-0.18853c0.00602,0.0978 -0.04,0.19115 -0.09538,0.26863c-0.07604,0.04239 -0.17059,-0.00588 -0.2512,0.03271c-0.14137,0.03422 -0.29873,0.07734 -0.38921,0.20059c-0.03288,0.09897 -0.10237,-0.00176 -0.10775,-0.06002c-0.00764,-0.02314 -0.00658,-0.04692 -0.00844,-0.07069l0,0l0.00002,0.00001zm0.03881,-0.29352c0.0121,-0.1077 0.08308,-0.19675 0.1482,-0.27881c0.07341,-0.08746 0.17333,-0.15158 0.28563,-0.17506c0.08901,-0.02325 0.18074,-0.03292 0.272,-0.04268c0.06921,0.05316 0.11323,0.14559 0.10163,0.23302c-0.05375,0.01361 -0.14879,-0.03241 -0.22127,-0.02119c-0.20556,0.00194 -0.4157,0.08432 -0.55461,0.23802c-0.01157,0.01483 -0.02197,0.03055 -0.03158,0.04671l0,0l0,-0.00001zm-0.01102,0.42486c0.07687,0.06164 0.07939,0.16847 0.12662,0.24888c-0.05662,-0.07289 -0.10647,-0.15805 -0.12662,-0.24888zm0.06087,0.05872c0.02411,-0.06644 0.0997,-0.15982 0.16277,-0.15287c0.02521,0.06494 0.03613,0.13531 0.07711,0.19385c0.11003,0.20197 0.31138,0.3767 0.55075,0.3822c0.03915,0.00793 0.14292,-0.01843 0.1387,-0.00752c-0.10005,0.04914 -0.21588,0.05991 -0.32612,0.05596c-0.20473,-0.0136 -0.40865,-0.11193 -0.53173,-0.27829c-0.03483,-0.05975 -0.05463,-0.12668 -0.07149,-0.19331l0,-0.00001l0.00001,-0.00001zm0.16851,-0.1694c0.05524,-0.02569 0.15874,-0.10384 0.20025,-0.04085c0.10131,0.19953 0.27258,0.36919 0.48343,0.44897c0.10947,0.03652 0.23263,0.03595 0.33938,-0.00963c-0.04452,0.06913 -0.1182,0.11346 -0.18763,0.15419c-0.17745,0.07574 -0.39196,0.03467 -0.54147,-0.08341c-0.14471,-0.11456 -0.25831,-0.27852 -0.29357,-0.46142l-0.00021,-0.00424l-0.00018,-0.00359l0,0l0,0l0,-0.00002zm0.07403,-0.71847c0.1343,-0.09237 0.30072,-0.1357 0.46305,-0.12419c-0.08309,0.05304 -0.18736,0.03289 -0.27847,0.0616c-0.06357,0.01384 -0.12666,0.03245 -0.18457,0.06259l0,0l-0.00001,0zm0.11596,0.65086c0.08842,-0.04185 0.18904,-0.04117 0.2846,-0.03545c0.05761,0.08973 0.09869,0.19402 0.18814,0.25871c0.10425,0.09308 0.25594,0.11936 0.38729,0.07562c0.04511,-0.03047 0.09519,-0.011 0.07055,0.04945c-0.02965,0.10037 -0.13495,0.14445 -0.23144,0.14932c-0.19741,0.01972 -0.378,-0.09243 -0.51135,-0.22789c-0.0778,-0.07789 -0.1435,-0.16871 -0.1878,-0.26975l0,0l0.00001,-0.00001zm0.29986,-0.7463c0.07195,-0.05708 0.16994,-0.00543 0.24356,0.02189c0.07322,0.06265 0.08304,0.16689 0.10239,0.25589c0.03235,0.20891 0.01927,0.43334 -0.07845,0.62404c-0.02335,0.06685 -0.09046,0.10306 -0.13348,0.03079c-0.04999,-0.05513 -0.08821,-0.11928 -0.12428,-0.18386c-0.02133,-0.0618 0.0485,-0.10536 0.06312,-0.16187c0.02849,-0.05634 0.03574,-0.1197 0.03894,-0.18136c0.01343,-0.09224 0.00022,-0.18793 -0.02404,-0.27724c-0.01701,-0.04942 -0.04464,-0.09728 -0.08776,-0.12828l0,0zm0.2068,0.98667c0.14164,-0.16002 0.16409,-0.38724 0.15343,-0.59181c-0.00649,-0.12061 -0.02483,-0.24525 -0.08843,-0.35029c0.06572,0.00204 0.13641,0.06377 0.18791,0.10923c0.14595,0.18557 0.18887,0.45704 0.07791,0.67026c-0.04365,0.08622 -0.10277,0.16404 -0.17217,0.23115c-0.0581,-0.00477 -0.11699,-0.02676 -0.15865,-0.06854l0,0zm0.16152,0.06947c0.15253,-0.14702 0.263,-0.35831 0.23003,-0.57497c-0.01312,-0.10147 -0.05017,-0.1995 -0.10566,-0.28534c0.10162,0.06333 0.15813,0.17549 0.20896,0.27969c0.07306,0.18211 0.03334,0.40408 -0.09723,0.54963c-0.06705,0.03803 -0.16167,0.04385 -0.2361,0.03098l0,0.00001zm0.25112,-0.034c0.05233,-0.09141 0.1117,-0.18407 0.11715,-0.29251c0.00813,-0.03626 -0.00448,0.07114 -0.00886,0.09374c-0.01392,0.0798 -0.03209,0.16497 -0.08155,0.23008c-0.01138,-0.00631 -0.0063,-0.03705 -0.02675,-0.03131l0,0l0.00001,0z" id="svg_205"/>
    <g stroke="null" id="svg_178">
     <path stroke="null" d="m5800.94574,5536.50179c0,18.44097 -2.2047,36.3885 -6.37082,53.63461c-6.47681,26.79745 -17.69918,51.90565 -32.804,74.50595c-0.64304,0.96799 -1.29718,1.93598 -1.96142,2.90397c-46.0009,66.76109 -126.13427,110.95306 -217.29013,110.95306s-171.28923,-44.19197 -217.28912,-110.95306c-20.00987,-29.01986 -33.56413,-62.30682 -38.76395,-98.09316c-1.20229,-8.25722 -1.95132,-16.6534 -2.23599,-25.16775c-0.09489,-2.58824 -0.13729,-5.17553 -0.13729,-7.78363c0,-23.53805 3.58668,-46.28582 10.27346,-67.79903c2.67915,-8.6032 5.85396,-17.00884 9.50423,-25.1876c5.91756,-13.33445 13.0899,-26.05633 21.35954,-38.0579c45.99989,-66.76109 126.13326,-110.95306 217.28912,-110.95306s171.28923,44.19197 217.28912,110.95306c10.46324,15.18157 19.16595,31.52869 25.83254,48.79466c3.15361,8.19861 5.86507,16.60425 8.07986,25.1876c2.13101,8.23737 3.80775,16.64395 4.99994,25.1876c1.17099,8.26762 1.87763,16.67326 2.13101,25.1876c0.06259,2.22241 0.09388,4.44482 0.09388,6.68707l0.00002,0.00001z" fill="#5C5E70" id="svg_204"/>
     <path stroke="null" d="m5759.8085,5415.27612l0,252.2702c-45.99989,66.76109 -126.13326,110.95306 -217.28912,110.95306s-171.28923,-44.19197 -217.28912,-110.95306l0,-351.48922c0,-11.90231 10.30576,-21.55291 23.0161,-21.55291l282.59225,0l128.96989,120.77192l0,0.00001z" fill="#F9EED7" id="svg_203"/>
     <path stroke="null" d="m5630.8376,5393.72132l0,-99.21712l128.9709,120.77192l-105.95279,0c-12.71236,0 -23.01812,-9.6506 -23.01812,-21.5548l0.00001,0z" fill="#E8DBC4" id="svg_202"/>
     <g stroke="null" id="svg_197" transform="matrix(1.009477953162421,0,0,0.9453030996968421,-3408.6466192257826,-3139.739252883112) ">
      <path stroke="null" d="m9082.37301,9253.22459l0,63.666c-45.568,70.624 -124.949,117.373 -215.249,117.373s-169.681,-46.749 -215.249,-117.373l0,-63.666l430.498,0l0,0z" fill="#4BC999" id="svg_201"/>
      <path stroke="null" d="m8780.38801,9091.30959c0,-3.534 -2.524,-15.312 -2.524,-20.863c0,-15.311 19.013,-29.445 36.848,-29.445c11.61,0 14.639,6.057 14.639,11.442c0,4.88 -2.524,10.6 -7.908,10.6c-5.048,0 -17.331,1.851 -17.331,10.937c0,4.039 2.524,16.657 2.524,20.695c0,5.048 -4.039,10.264 -6.058,10.937c2.356,0.673 6.058,5.553 6.058,10.769c0,4.207 -2.524,22.882 -2.524,26.248c0,7.235 11.442,8.917 17.331,8.917c6.225,0 7.908,6.73 7.908,10.937c0,7.571 -5.216,11.105 -14.975,11.105c-17.666,0 -36.511,-11.442 -36.511,-27.594c0,-5.889 2.524,-22.715 2.524,-26.416c0,-7.235 -10.096,-2.524 -10.096,-14.47c-0.001,-11.781 10.095,-6.901 10.095,-13.799z" fill="#4BC999" id="svg_200"/>
      <path stroke="null" d="m8879.49101,9137.20859c0,2.019 -0.505,3.87 -10.432,26.921c-1.009,2.355 -3.196,3.028 -5.047,3.028c-3.534,0 -8.414,-2.355 -8.414,-6.562c0,-0.841 0.168,-1.682 0.674,-2.692l4.206,-9.085c-4.037,-2.355 -6.73,-6.562 -6.73,-11.442c0,-7.067 5.722,-12.956 12.787,-12.956c7.066,0 12.956,5.889 12.956,12.788zm1.01,-45.934c0,6.898 -5.889,12.956 -12.787,12.956c-7.403,0 -12.955,-6.057 -12.955,-12.956c0,-7.067 5.552,-12.956 12.955,-12.956c6.899,0.001 12.787,5.89 12.787,12.956z" fill="#4BC999" id="svg_199"/>
      <path stroke="null" d="m8953.86101,9119.57559c0,3.701 2.523,20.527 2.523,26.416c0,16.152 -18.845,27.594 -36.511,27.594c-9.759,0 -14.974,-3.534 -14.974,-11.105c0,-4.206 1.682,-10.937 7.908,-10.937c5.889,0 17.33,-1.682 17.33,-8.917c0,-3.366 -2.523,-22.041 -2.523,-26.248c0,-5.216 3.702,-10.096 6.057,-10.769c-2.02,-0.673 -6.057,-5.889 -6.057,-10.937c0,-4.039 2.523,-16.657 2.523,-20.695c0,-9.085 -12.283,-10.937 -17.33,-10.937c-5.384,0 -7.908,-5.721 -7.908,-10.6c0,-5.384 3.028,-11.442 14.638,-11.442c17.835,0 36.848,14.133 36.848,29.445c0,5.552 -2.523,17.33 -2.523,20.863c0,6.898 10.095,2.019 10.095,13.797c-0.001,11.949 -10.096,7.237 -10.096,14.472z" fill="#4BC999" id="svg_198"/>
     </g>
     <g stroke="null" id="svg_194" transform="matrix(1.009477953162421,0,0,0.9453030996968421,-3408.6466192257826,-3139.739252883112) ">
      <path stroke="null" d="m8818.80601,9304.45559c-3.966,0 -6.214,-4.231 -6.214,-9.122c0,-4.231 1.851,-8.858 6.214,-8.858l23.136,0c4.495,0 8.99,2.115 8.99,6.346l0,59.889c0,22.74 -14.411,31.201 -31.729,31.201c-18.906,0 -33.185,-10.048 -33.185,-27.631c0,-7.933 3.305,-9.783 10.445,-9.783c5.288,0 9.782,1.323 10.179,6.214c0.397,5.157 1.058,13.221 11.635,13.221c7.667,0 12.031,-4.231 12.031,-13.221l0,-48.255l-11.502,0l0,-0.001z" fill="#F9EED7" id="svg_196"/>
      <path stroke="null" d="m8871.68201,9296.39159c-0.132,-0.529 -0.264,-1.057 -0.264,-1.454c0,-4.892 7.536,-8.462 13.221,-8.462c3.305,0 5.949,1.057 6.742,3.834l18.509,67.822l18.377,-67.822c0.793,-2.776 3.438,-3.834 6.743,-3.834c5.684,0 13.22,3.569 13.22,8.462c0,0.396 -0.132,0.926 -0.264,1.454l-24.591,80.646c-1.454,4.628 -7.403,6.875 -13.484,6.875c-6.081,0 -12.031,-2.248 -13.484,-6.875l-24.725,-80.646z" fill="#F9EED7" id="svg_195"/>
     </g>
     <g stroke="null" id="svg_193" transform="matrix(1.009477953162421,0,0,0.9453030996968421,-3408.6466192257826,-3139.739252883112) "/>
     <g stroke="null" id="svg_192" transform="matrix(1.009477953162421,0,0,0.9453030996968421,-3408.6466192257826,-3139.739252883112) "/>
     <g stroke="null" id="svg_191" transform="matrix(1.009477953162421,0,0,0.9453030996968421,-3408.6466192257826,-3139.739252883112) "/>
     <g stroke="null" id="svg_190" transform="matrix(1.009477953162421,0,0,0.9453030996968421,-3408.6466192257826,-3139.739252883112) "/>
     <g stroke="null" id="svg_189" transform="matrix(1.009477953162421,0,0,0.9453030996968421,-3408.6466192257826,-3139.739252883112) "/>
     <g stroke="null" id="svg_188" transform="matrix(1.009477953162421,0,0,0.9453030996968421,-3408.6466192257826,-3139.739252883112) "/>
     <g stroke="null" id="svg_187" transform="matrix(1.009477953162421,0,0,0.9453030996968421,-3408.6466192257826,-3139.739252883112) "/>
     <g stroke="null" id="svg_186" transform="matrix(1.009477953162421,0,0,0.9453030996968421,-3408.6466192257826,-3139.739252883112) "/>
     <g stroke="null" id="svg_185" transform="matrix(1.009477953162421,0,0,0.9453030996968421,-3408.6466192257826,-3139.739252883112) "/>
     <g stroke="null" id="svg_184" transform="matrix(1.009477953162421,0,0,0.9453030996968421,-3408.6466192257826,-3139.739252883112) "/>
     <g stroke="null" id="svg_183" transform="matrix(1.009477953162421,0,0,0.9453030996968421,-3408.6466192257826,-3139.739252883112) "/>
     <g stroke="null" id="svg_182" transform="matrix(1.009477953162421,0,0,0.9453030996968421,-3408.6466192257826,-3139.739252883112) "/>
     <g stroke="null" id="svg_181" transform="matrix(1.009477953162421,0,0,0.9453030996968421,-3408.6466192257826,-3139.739252883112) "/>
     <g stroke="null" id="svg_180" transform="matrix(1.009477953162421,0,0,0.9453030996968421,-3408.6466192257826,-3139.739252883112) "/>
     <g stroke="null" id="svg_179" transform="matrix(1.009477953162421,0,0,0.9453030996968421,-3408.6466192257826,-3139.739252883112) "/>
    </g>
   </g>
  </g>
 </g>
</svg>