<svg width="600" height="600" xmlns="http://www.w3.org/2000/svg">
 <!-- Created with Method Draw - http://github.com/duopixel/Method-Draw/ -->

 <g>
  <title>background</title>
  <rect fill="none" id="canvas_background" height="602" width="602" y="-1" x="-1"/>
  <g display="none" overflow="visible" y="0" x="0" height="100%" width="100%" id="canvasGrid">
   <rect fill="url(#gridpattern)" stroke-width="0" y="0" x="0" height="100%" width="100%"/>
  </g>
 </g>
 <g>
  <title>Layer 1</title>
  <path id="svg_9" d="m310.5,173.59598" fill-opacity="null" stroke-width="1.5" fill="#003f7f"/>
  <path id="svg_41" d="m240.93898,260.13344c-0.00306,-0.12168 0.0572,-0.24123 0.15857,-0.30927c0.16528,-0.12562 0.38342,-0.18286 0.58847,-0.14827c0.10154,-0.01567 0.14648,0.08974 0.11076,0.17092c-0.05521,0.054 -0.15125,0.00264 -0.22276,0.03057c-0.23183,0.02985 -0.46067,0.13065 -0.61736,0.30774c-0.00096,-0.01895 -0.02521,-0.03157 -0.01768,-0.05168l0,0zm0.0028,0.10798c0.01234,-0.08584 0.09795,-0.13053 0.15747,-0.1827c0.20039,-0.14183 0.45158,-0.19807 0.69449,-0.18853c0.00602,0.0978 -0.04,0.19115 -0.09538,0.26863c-0.07604,0.04239 -0.17059,-0.00588 -0.2512,0.03271c-0.14137,0.03422 -0.29873,0.07734 -0.38921,0.20059c-0.03288,0.09897 -0.10237,-0.00176 -0.10775,-0.06002c-0.00764,-0.02314 -0.00658,-0.04692 -0.00844,-0.07069l0,0zm0.03881,-0.29352c0.0121,-0.1077 0.08308,-0.19675 0.1482,-0.27881c0.07341,-0.08746 0.17333,-0.15158 0.28563,-0.17506c0.08901,-0.02325 0.18074,-0.03292 0.272,-0.04268c0.06921,0.05316 0.11323,0.14559 0.10163,0.23302c-0.05375,0.01361 -0.14879,-0.03241 -0.22127,-0.02119c-0.20556,0.00194 -0.4157,0.08432 -0.55461,0.23802c-0.01157,0.01483 -0.02197,0.03055 -0.03158,0.04671l0,0zm-0.01102,0.42486c0.07687,0.06164 0.07939,0.16847 0.12662,0.24888c-0.05662,-0.07289 -0.10647,-0.15805 -0.12662,-0.24888zm0.06087,0.05872c0.02411,-0.06644 0.0997,-0.15982 0.16277,-0.15287c0.02521,0.06494 0.03613,0.13531 0.07711,0.19385c0.11003,0.20197 0.31138,0.3767 0.55075,0.3822c0.03915,0.00793 0.14292,-0.01843 0.1387,-0.00752c-0.10005,0.04914 -0.21588,0.05991 -0.32612,0.05596c-0.20473,-0.0136 -0.40865,-0.11193 -0.53173,-0.27829c-0.03483,-0.05975 -0.05463,-0.12668 -0.07149,-0.19331l0,-0.00001zm0.16851,-0.1694c0.05524,-0.02569 0.15874,-0.10384 0.20025,-0.04085c0.10131,0.19953 0.27258,0.36919 0.48343,0.44897c0.10947,0.03652 0.23263,0.03595 0.33938,-0.00963c-0.04452,0.06913 -0.1182,0.11346 -0.18763,0.15419c-0.17745,0.07574 -0.39196,0.03467 -0.54147,-0.08341c-0.14471,-0.11456 -0.25831,-0.27852 -0.29357,-0.46142l-0.00021,-0.00424l-0.00018,-0.00359l0,0l0,0zm0.07403,-0.71847c0.1343,-0.09237 0.30072,-0.1357 0.46305,-0.12419c-0.08309,0.05304 -0.18736,0.03289 -0.27847,0.0616c-0.06357,0.01384 -0.12666,0.03245 -0.18457,0.06259l0,0zm0.11596,0.65086c0.08842,-0.04185 0.18904,-0.04117 0.2846,-0.03545c0.05761,0.08973 0.09869,0.19402 0.18814,0.25871c0.10425,0.09308 0.25594,0.11936 0.38729,0.07562c0.04511,-0.03047 0.09519,-0.011 0.07055,0.04945c-0.02965,0.10037 -0.13495,0.14445 -0.23144,0.14932c-0.19741,0.01972 -0.378,-0.09243 -0.51135,-0.22789c-0.0778,-0.07789 -0.1435,-0.16871 -0.1878,-0.26975l0,0zm0.29986,-0.7463c0.07195,-0.05708 0.16994,-0.00543 0.24356,0.02189c0.07322,0.06265 0.08304,0.16689 0.10239,0.25589c0.03235,0.20891 0.01927,0.43334 -0.07845,0.62404c-0.02335,0.06685 -0.09046,0.10306 -0.13348,0.03079c-0.04999,-0.05513 -0.08821,-0.11928 -0.12428,-0.18386c-0.02133,-0.0618 0.0485,-0.10536 0.06312,-0.16187c0.02849,-0.05634 0.03574,-0.1197 0.03894,-0.18136c0.01343,-0.09224 0.00022,-0.18793 -0.02404,-0.27724c-0.01701,-0.04942 -0.04464,-0.09728 -0.08776,-0.12828l0,0zm0.2068,0.98667c0.14164,-0.16002 0.16409,-0.38724 0.15343,-0.59181c-0.00649,-0.12061 -0.02483,-0.24525 -0.08843,-0.35029c0.06572,0.00204 0.13641,0.06377 0.18791,0.10923c0.14595,0.18557 0.18887,0.45704 0.07791,0.67026c-0.04365,0.08622 -0.10277,0.16404 -0.17217,0.23115c-0.0581,-0.00477 -0.11699,-0.02676 -0.15865,-0.06854l0,0zm0.16152,0.06947c0.15253,-0.14702 0.263,-0.35831 0.23003,-0.57497c-0.01312,-0.10147 -0.05017,-0.1995 -0.10566,-0.28534c0.10162,0.06333 0.15813,0.17549 0.20896,0.27969c0.07306,0.18211 0.03334,0.40408 -0.09723,0.54963c-0.06705,0.03803 -0.16167,0.04385 -0.2361,0.03098zm0.25112,-0.034c0.05233,-0.09141 0.1117,-0.18407 0.11715,-0.29251c0.00813,-0.03626 -0.00448,0.07114 -0.00886,0.09374c-0.01392,0.0798 -0.03209,0.16497 -0.08155,0.23008c-0.01138,-0.00631 -0.0063,-0.03705 -0.02675,-0.03131l0,0z" fill-opacity="null" stroke-opacity="null" stroke-width="0" stroke="null" fill="#bccad3"/>
  <!-- Created with Method Draw - http://github.com/duopixel/Method-Draw/ -->
  <g stroke="null" id="svg_338">
   <path stroke="null" id="svg_312" fill="#5C5E70" d="m529.14062,295.00001c0,16.97135 -1.97314,33.48858 -5.70168,49.3603c-5.79654,24.66188 -15.84021,47.76913 -29.35855,68.56834c-0.5755,0.89085 -1.16093,1.7817 -1.75541,2.67254c-41.16936,61.44069 -112.88621,102.11087 -194.46784,102.11087s-153.29848,-40.67018 -194.46693,-102.11087c-17.90821,-26.70718 -30.03884,-57.34139 -34.69252,-90.27581c-1.07601,-7.59918 -1.74637,-15.32624 -2.00114,-23.16205c-0.08492,-2.38197 -0.12287,-4.76308 -0.12287,-7.16332c0,-21.66223 3.20996,-42.59716 9.19442,-62.39591c2.39776,-7.91759 5.23911,-15.65335 8.50599,-23.18032c5.29603,-12.27178 11.71505,-23.97982 19.11612,-35.02495c41.16846,-61.44069 112.8853,-102.11087 194.46693,-102.11087s153.29848,40.67018 194.46693,102.11087c9.36427,13.9717 17.15292,29.01607 23.11931,44.90606c2.82238,7.54524 5.24905,15.281 7.23122,23.18032c1.90719,7.58091 3.40782,15.31754 4.47479,23.18032c1.048,7.60875 1.68042,15.34451 1.90719,23.18032c0.05601,2.0453 0.08402,4.09059 0.08402,6.15416z"/>
   <path stroke="null" id="svg_313" fill="#F9EED7" d="m492.32409,183.43519l0,232.166c-41.16846,61.44069 -112.8853,102.11087 -194.46693,102.11087s-153.29848,-40.67018 -194.46693,-102.11087l0,-323.47794c0,-10.95378 9.22333,-19.83529 20.59868,-19.83529l252.91118,0l115.424,111.14723z"/>
   <path stroke="null" id="svg_314" fill="#E8DBC4" d="m376.89919,163.59816l0,-91.3102l115.42491,111.14723l-94.82441,0c-11.37716,0 -20.60049,-8.88151 -20.60049,-19.83703z"/>
   <path stroke="null" id="svg_315" fill="#34ABE0" d="m492.32409,360.21375l0,55.38744c-41.16846,61.44069 -112.8853,102.11087 -194.46693,102.11087s-153.29848,-40.67018 -194.46693,-102.11087l0,-55.38744l388.93387,0l0,0z"/>
   <g stroke="null" transform="matrix(0.9034510420465017,0,0,0.8699689493022019,-3364.0028697706416,-3323.0253469760073) " id="svg_316">
    <path stroke="null" id="svg_317" fill="#F9EED7" d="m3976.15246,4279.4673c-7.536,0 -11.898,4.231 -11.898,13.22l0,35.034c0,8.99 4.362,13.221 12.031,13.221c10.576,0 11.238,-8.065 11.634,-13.221c0.397,-4.891 4.892,-6.214 10.18,-6.214c7.139,0 10.444,1.851 10.444,9.783c0,17.584 -14.279,27.631 -33.184,27.631c-17.319,0 -31.729,-8.462 -31.729,-31.201l0,-35.034c0,-22.739 14.41,-31.201 31.729,-31.201c18.905,0 33.184,9.519 33.184,26.309c0,7.932 -3.305,9.783 -10.312,9.783c-5.552,0 -10.048,-1.454 -10.312,-6.214c-0.132,-3.434 -0.529,-11.896 -11.767,-11.896z"/>
    <path stroke="null" id="svg_318" fill="#F9EED7" d="m4071.86446,4332.2183c0,-15.997 -41.909,-13.221 -41.909,-44.157c0,-19.831 17.318,-27.367 33.845,-27.367c7.007,0 26.31,1.322 26.31,11.634c0,3.569 -2.379,10.841 -8.197,10.841c-4.759,0 -7.271,-5.024 -18.112,-5.024c-9.386,0 -13.22,3.834 -13.22,7.933c0,13.22 41.909,10.709 41.909,44.025c0,19.038 -13.881,29.349 -33.052,29.349c-17.318,0 -31.861,-8.462 -31.861,-17.186c0,-4.495 3.966,-11.105 8.99,-11.105c6.213,0 10.179,9.783 22.476,9.783c6.079,0 12.821,-2.38 12.821,-8.726z"/>
    <path stroke="null" id="svg_319" fill="#F9EED7" d="m4155.54646,4332.2183c0,-15.997 -41.909,-13.221 -41.909,-44.157c0,-19.831 17.318,-27.367 33.845,-27.367c7.007,0 26.31,1.322 26.31,11.634c0,3.569 -2.379,10.841 -8.197,10.841c-4.759,0 -7.271,-5.024 -18.112,-5.024c-9.386,0 -13.22,3.834 -13.22,7.933c0,13.22 41.909,10.709 41.909,44.025c0,19.038 -13.881,29.349 -33.052,29.349c-17.318,0 -31.861,-8.462 -31.861,-17.186c0,-4.495 3.966,-11.105 8.99,-11.105c6.213,0 10.179,9.783 22.476,9.783c6.078,0 12.821,-2.38 12.821,-8.726z"/>
   </g>
   <g stroke="null" transform="matrix(0.9034510420465017,0,0,0.8699689493022019,-3364.0028697706416,-3323.0253469760073) " id="svg_320">
    <path stroke="null" id="svg_321" fill="#34ABE0" d="m3982.11646,4077.4963c0,-3.704 -2.646,-16.05 -2.646,-21.871c0,-16.05 19.93,-30.865 38.626,-30.865c12.169,0 15.345,6.35 15.345,11.993c0,5.115 -2.646,11.111 -8.29,11.111c-5.29,0 -18.167,1.94 -18.167,11.465c0,4.233 2.646,17.46 2.646,21.693c0,5.291 -4.234,10.758 -6.35,11.465c2.469,0.705 6.35,5.82 6.35,11.288c0,4.409 -2.646,23.987 -2.646,27.514c0,7.584 11.993,9.348 18.167,9.348c6.525,0 8.29,7.054 8.29,11.464c0,7.937 -5.468,11.641 -15.697,11.641c-18.519,0 -38.273,-11.993 -38.273,-28.925c0,-6.173 2.646,-23.81 2.646,-27.69c0,-7.584 -10.583,-2.646 -10.583,-15.168c-0.001,-12.347 10.582,-7.232 10.582,-14.463z"/>
    <path stroke="null" id="svg_322" fill="#34ABE0" d="m4124.26746,4107.1263c0,3.88 2.645,21.518 2.645,27.69c0,16.932 -19.753,28.925 -38.272,28.925c-10.23,0 -15.696,-3.704 -15.696,-11.641c0,-4.409 1.764,-11.464 8.29,-11.464c6.172,0 18.167,-1.764 18.167,-9.348c0,-3.527 -2.646,-23.105 -2.646,-27.514c0,-5.467 3.881,-10.582 6.349,-11.288c-2.116,-0.705 -6.349,-6.173 -6.349,-11.465c0,-4.233 2.646,-17.46 2.646,-21.693c0,-9.524 -12.875,-11.465 -18.167,-11.465c-5.643,0 -8.29,-5.997 -8.29,-11.111c0,-5.643 3.174,-11.993 15.345,-11.993c18.695,0 38.625,14.816 38.625,30.865c0,5.82 -2.645,18.167 -2.645,21.871c0,7.231 10.582,2.116 10.582,14.462c-0.002,12.523 -10.584,7.585 -10.584,15.169z"/>
   </g>
   <g stroke="null" transform="matrix(0.9034510420465017,0,0,0.8699689493022019,-3364.0028697706416,-3323.0253469760073) " id="svg_323"/>
   <g stroke="null" transform="matrix(0.9034510420465017,0,0,0.8699689493022019,-3364.0028697706416,-3323.0253469760073) " id="svg_324"/>
   <g stroke="null" transform="matrix(0.9034510420465017,0,0,0.8699689493022019,-3364.0028697706416,-3323.0253469760073) " id="svg_325"/>
   <g stroke="null" transform="matrix(0.9034510420465017,0,0,0.8699689493022019,-3364.0028697706416,-3323.0253469760073) " id="svg_326"/>
   <g stroke="null" transform="matrix(0.9034510420465017,0,0,0.8699689493022019,-3364.0028697706416,-3323.0253469760073) " id="svg_327"/>
   <g stroke="null" transform="matrix(0.9034510420465017,0,0,0.8699689493022019,-3364.0028697706416,-3323.0253469760073) " id="svg_328"/>
   <g stroke="null" transform="matrix(0.9034510420465017,0,0,0.8699689493022019,-3364.0028697706416,-3323.0253469760073) " id="svg_329"/>
   <g stroke="null" transform="matrix(0.9034510420465017,0,0,0.8699689493022019,-3364.0028697706416,-3323.0253469760073) " id="svg_330"/>
   <g stroke="null" transform="matrix(0.9034510420465017,0,0,0.8699689493022019,-3364.0028697706416,-3323.0253469760073) " id="svg_331"/>
   <g stroke="null" transform="matrix(0.9034510420465017,0,0,0.8699689493022019,-3364.0028697706416,-3323.0253469760073) " id="svg_332"/>
   <g stroke="null" transform="matrix(0.9034510420465017,0,0,0.8699689493022019,-3364.0028697706416,-3323.0253469760073) " id="svg_333"/>
   <g stroke="null" transform="matrix(0.9034510420465017,0,0,0.8699689493022019,-3364.0028697706416,-3323.0253469760073) " id="svg_334"/>
   <g stroke="null" transform="matrix(0.9034510420465017,0,0,0.8699689493022019,-3364.0028697706416,-3323.0253469760073) " id="svg_335"/>
   <g stroke="null" transform="matrix(0.9034510420465017,0,0,0.8699689493022019,-3364.0028697706416,-3323.0253469760073) " id="svg_336"/>
   <g stroke="null" transform="matrix(0.9034510420465017,0,0,0.8699689493022019,-3364.0028697706416,-3323.0253469760073) " id="svg_337"/>
  </g>
 </g>
</svg>