<svg width="600" height="600" xmlns="http://www.w3.org/2000/svg">
 <!-- Created with Method Draw - http://github.com/duopixel/Method-Draw/ -->

 <g>
  <title>background</title>
  <rect fill="none" id="canvas_background" height="602" width="602" y="-1" x="-1"/>
  <g display="none" overflow="visible" y="0" x="0" height="100%" width="100%" id="canvasGrid">
   <rect fill="url(#gridpattern)" stroke-width="0" y="0" x="0" height="100%" width="100%"/>
  </g>
 </g>
 <g>
  <title>Layer 1</title>
  <path id="svg_9" d="m310.5,173.59598" fill-opacity="null" stroke-width="1.5" fill="#003f7f"/>
  <path id="svg_41" d="m240.93898,260.13344c-0.00306,-0.12168 0.0572,-0.24123 0.15857,-0.30927c0.16528,-0.12562 0.38342,-0.18286 0.58847,-0.14827c0.10154,-0.01567 0.14648,0.08974 0.11076,0.17092c-0.05521,0.054 -0.15125,0.00264 -0.22276,0.03057c-0.23183,0.02985 -0.46067,0.13065 -0.61736,0.30774c-0.00096,-0.01895 -0.02521,-0.03157 -0.01768,-0.05168l0,0zm0.0028,0.10798c0.01234,-0.08584 0.09795,-0.13053 0.15747,-0.1827c0.20039,-0.14183 0.45158,-0.19807 0.69449,-0.18853c0.00602,0.0978 -0.04,0.19115 -0.09538,0.26863c-0.07604,0.04239 -0.17059,-0.00588 -0.2512,0.03271c-0.14137,0.03422 -0.29873,0.07734 -0.38921,0.20059c-0.03288,0.09897 -0.10237,-0.00176 -0.10775,-0.06002c-0.00764,-0.02314 -0.00658,-0.04692 -0.00844,-0.07069l0,0zm0.03881,-0.29352c0.0121,-0.1077 0.08308,-0.19675 0.1482,-0.27881c0.07341,-0.08746 0.17333,-0.15158 0.28563,-0.17506c0.08901,-0.02325 0.18074,-0.03292 0.272,-0.04268c0.06921,0.05316 0.11323,0.14559 0.10163,0.23302c-0.05375,0.01361 -0.14879,-0.03241 -0.22127,-0.02119c-0.20556,0.00194 -0.4157,0.08432 -0.55461,0.23802c-0.01157,0.01483 -0.02197,0.03055 -0.03158,0.04671l0,0zm-0.01102,0.42486c0.07687,0.06164 0.07939,0.16847 0.12662,0.24888c-0.05662,-0.07289 -0.10647,-0.15805 -0.12662,-0.24888zm0.06087,0.05872c0.02411,-0.06644 0.0997,-0.15982 0.16277,-0.15287c0.02521,0.06494 0.03613,0.13531 0.07711,0.19385c0.11003,0.20197 0.31138,0.3767 0.55075,0.3822c0.03915,0.00793 0.14292,-0.01843 0.1387,-0.00752c-0.10005,0.04914 -0.21588,0.05991 -0.32612,0.05596c-0.20473,-0.0136 -0.40865,-0.11193 -0.53173,-0.27829c-0.03483,-0.05975 -0.05463,-0.12668 -0.07149,-0.19331l0,-0.00001zm0.16851,-0.1694c0.05524,-0.02569 0.15874,-0.10384 0.20025,-0.04085c0.10131,0.19953 0.27258,0.36919 0.48343,0.44897c0.10947,0.03652 0.23263,0.03595 0.33938,-0.00963c-0.04452,0.06913 -0.1182,0.11346 -0.18763,0.15419c-0.17745,0.07574 -0.39196,0.03467 -0.54147,-0.08341c-0.14471,-0.11456 -0.25831,-0.27852 -0.29357,-0.46142l-0.00021,-0.00424l-0.00018,-0.00359l0,0l0,0zm0.07403,-0.71847c0.1343,-0.09237 0.30072,-0.1357 0.46305,-0.12419c-0.08309,0.05304 -0.18736,0.03289 -0.27847,0.0616c-0.06357,0.01384 -0.12666,0.03245 -0.18457,0.06259l0,0zm0.11596,0.65086c0.08842,-0.04185 0.18904,-0.04117 0.2846,-0.03545c0.05761,0.08973 0.09869,0.19402 0.18814,0.25871c0.10425,0.09308 0.25594,0.11936 0.38729,0.07562c0.04511,-0.03047 0.09519,-0.011 0.07055,0.04945c-0.02965,0.10037 -0.13495,0.14445 -0.23144,0.14932c-0.19741,0.01972 -0.378,-0.09243 -0.51135,-0.22789c-0.0778,-0.07789 -0.1435,-0.16871 -0.1878,-0.26975l0,0zm0.29986,-0.7463c0.07195,-0.05708 0.16994,-0.00543 0.24356,0.02189c0.07322,0.06265 0.08304,0.16689 0.10239,0.25589c0.03235,0.20891 0.01927,0.43334 -0.07845,0.62404c-0.02335,0.06685 -0.09046,0.10306 -0.13348,0.03079c-0.04999,-0.05513 -0.08821,-0.11928 -0.12428,-0.18386c-0.02133,-0.0618 0.0485,-0.10536 0.06312,-0.16187c0.02849,-0.05634 0.03574,-0.1197 0.03894,-0.18136c0.01343,-0.09224 0.00022,-0.18793 -0.02404,-0.27724c-0.01701,-0.04942 -0.04464,-0.09728 -0.08776,-0.12828l0,0zm0.2068,0.98667c0.14164,-0.16002 0.16409,-0.38724 0.15343,-0.59181c-0.00649,-0.12061 -0.02483,-0.24525 -0.08843,-0.35029c0.06572,0.00204 0.13641,0.06377 0.18791,0.10923c0.14595,0.18557 0.18887,0.45704 0.07791,0.67026c-0.04365,0.08622 -0.10277,0.16404 -0.17217,0.23115c-0.0581,-0.00477 -0.11699,-0.02676 -0.15865,-0.06854l0,0zm0.16152,0.06947c0.15253,-0.14702 0.263,-0.35831 0.23003,-0.57497c-0.01312,-0.10147 -0.05017,-0.1995 -0.10566,-0.28534c0.10162,0.06333 0.15813,0.17549 0.20896,0.27969c0.07306,0.18211 0.03334,0.40408 -0.09723,0.54963c-0.06705,0.03803 -0.16167,0.04385 -0.2361,0.03098zm0.25112,-0.034c0.05233,-0.09141 0.1117,-0.18407 0.11715,-0.29251c0.00813,-0.03626 -0.00448,0.07114 -0.00886,0.09374c-0.01392,0.0798 -0.03209,0.16497 -0.08155,0.23008c-0.01138,-0.00631 -0.0063,-0.03705 -0.02675,-0.03131l0,0z" fill-opacity="null" stroke-opacity="null" stroke-width="0" stroke="null" fill="#bccad3"/>
  <!-- Created with Method Draw - http://github.com/duopixel/Method-Draw/ -->
  <!-- Created with Method Draw - http://github.com/duopixel/Method-Draw/ -->
  <g stroke="null" id="svg_375">
   <g stroke="null" transform="matrix(0.8517868225111654,0,0,0.9562007333920297,-4854.601653695172,-5496.114288013053) " id="svg_372">
    <title stroke="null" transform="translate(456.18389892578125,-5.97603178024292) translate(-454.5067443847656,7.470039367675781) translate(-8.385733604431152,-2.98801589012146) translate(14.508516311645508,1.6316885948181152) translate(0,25.369234085083008) translate(550.2838745117188,519.921630859375) translate(5210.20361328125,0) translate(0,5210.20361328125) ">background</title>
    <rect stroke="null" x="5767.28743" y="5754.63216" width="602" height="602" id="svg_370" fill="none"/>
    <g stroke="null" id="svg_369" display="none">
     <rect stroke="null" id="svg_373" width="600" height="600" x="5768.28743" y="5755.63216" stroke-width="0" fill="url(#gridpattern)"/>
    </g>
   </g>
   <g stroke="null" transform="matrix(0.8517868225111654,0,0,0.9562007333920297,-4854.601653695172,-5496.114288013053) " id="svg_374">
    <title stroke="null" transform="translate(456.18389892578125,-5.97603178024292) translate(-454.5067443847656,7.470039367675781) translate(-8.385733604431152,-2.98801589012146) translate(14.508516311645508,1.6316885948181152) translate(0,25.369234085083008) translate(550.2838745117188,519.921630859375) translate(5210.20361328125,0) translate(0,5210.20361328125) ">Layer 1</title>
    <path stroke="null" fill="#003f7f" stroke-width="1.5" fill-opacity="null" d="m6078.78743,5929.22814" id="svg_368"/>
    <path stroke="null" fill="#bccad3" stroke-width="0" stroke-opacity="null" fill-opacity="null" d="m6009.22641,6015.7656c-0.00306,-0.12168 0.0572,-0.24123 0.15857,-0.30927c0.16528,-0.12562 0.38342,-0.18286 0.58847,-0.14827c0.10154,-0.01567 0.14648,0.08974 0.11076,0.17092c-0.05521,0.054 -0.15125,0.00264 -0.22276,0.03057c-0.23183,0.02985 -0.46067,0.13065 -0.61736,0.30774c-0.00096,-0.01895 -0.02521,-0.03157 -0.01768,-0.05168l0,0l0,-0.00001zm0.0028,0.10798c0.01234,-0.08584 0.09795,-0.13053 0.15747,-0.1827c0.20039,-0.14183 0.45158,-0.19807 0.69449,-0.18853c0.00602,0.0978 -0.04,0.19115 -0.09538,0.26863c-0.07604,0.04239 -0.17059,-0.00588 -0.2512,0.03271c-0.14137,0.03422 -0.29873,0.07734 -0.38921,0.20059c-0.03288,0.09897 -0.10237,-0.00176 -0.10775,-0.06002c-0.00764,-0.02314 -0.00658,-0.04692 -0.00844,-0.07069l0,0l0.00002,0.00001zm0.03881,-0.29352c0.0121,-0.1077 0.08308,-0.19675 0.1482,-0.27881c0.07341,-0.08746 0.17333,-0.15158 0.28563,-0.17506c0.08901,-0.02325 0.18074,-0.03292 0.272,-0.04268c0.06921,0.05316 0.11323,0.14559 0.10163,0.23302c-0.05375,0.01361 -0.14879,-0.03241 -0.22127,-0.02119c-0.20556,0.00194 -0.4157,0.08432 -0.55461,0.23802c-0.01157,0.01483 -0.02197,0.03055 -0.03158,0.04671l0,0l0,-0.00001zm-0.01102,0.42486c0.07687,0.06164 0.07939,0.16847 0.12662,0.24888c-0.05662,-0.07289 -0.10647,-0.15805 -0.12662,-0.24888zm0.06087,0.05872c0.02411,-0.06644 0.0997,-0.15982 0.16277,-0.15287c0.02521,0.06494 0.03613,0.13531 0.07711,0.19385c0.11003,0.20197 0.31138,0.3767 0.55075,0.3822c0.03915,0.00793 0.14292,-0.01843 0.1387,-0.00752c-0.10005,0.04914 -0.21588,0.05991 -0.32612,0.05596c-0.20473,-0.0136 -0.40865,-0.11193 -0.53173,-0.27829c-0.03483,-0.05975 -0.05463,-0.12668 -0.07149,-0.19331l0,-0.00001l0.00001,-0.00001zm0.16851,-0.1694c0.05524,-0.02569 0.15874,-0.10384 0.20025,-0.04085c0.10131,0.19953 0.27258,0.36919 0.48343,0.44897c0.10947,0.03652 0.23263,0.03595 0.33938,-0.00963c-0.04452,0.06913 -0.1182,0.11346 -0.18763,0.15419c-0.17745,0.07574 -0.39196,0.03467 -0.54147,-0.08341c-0.14471,-0.11456 -0.25831,-0.27852 -0.29357,-0.46142l-0.00021,-0.00424l-0.00018,-0.00359l0,0l0,0l0,-0.00002zm0.07403,-0.71847c0.1343,-0.09237 0.30072,-0.1357 0.46305,-0.12419c-0.08309,0.05304 -0.18736,0.03289 -0.27847,0.0616c-0.06357,0.01384 -0.12666,0.03245 -0.18457,0.06259l0,0l-0.00001,0zm0.11596,0.65086c0.08842,-0.04185 0.18904,-0.04117 0.2846,-0.03545c0.05761,0.08973 0.09869,0.19402 0.18814,0.25871c0.10425,0.09308 0.25594,0.11936 0.38729,0.07562c0.04511,-0.03047 0.09519,-0.011 0.07055,0.04945c-0.02965,0.10037 -0.13495,0.14445 -0.23144,0.14932c-0.19741,0.01972 -0.378,-0.09243 -0.51135,-0.22789c-0.0778,-0.07789 -0.1435,-0.16871 -0.1878,-0.26975l0,0l0.00001,-0.00001zm0.29986,-0.7463c0.07195,-0.05708 0.16994,-0.00543 0.24356,0.02189c0.07322,0.06265 0.08304,0.16689 0.10239,0.25589c0.03235,0.20891 0.01927,0.43334 -0.07845,0.62404c-0.02335,0.06685 -0.09046,0.10306 -0.13348,0.03079c-0.04999,-0.05513 -0.08821,-0.11928 -0.12428,-0.18386c-0.02133,-0.0618 0.0485,-0.10536 0.06312,-0.16187c0.02849,-0.05634 0.03574,-0.1197 0.03894,-0.18136c0.01343,-0.09224 0.00022,-0.18793 -0.02404,-0.27724c-0.01701,-0.04942 -0.04464,-0.09728 -0.08776,-0.12828l0,0zm0.2068,0.98667c0.14164,-0.16002 0.16409,-0.38724 0.15343,-0.59181c-0.00649,-0.12061 -0.02483,-0.24525 -0.08843,-0.35029c0.06572,0.00204 0.13641,0.06377 0.18791,0.10923c0.14595,0.18557 0.18887,0.45704 0.07791,0.67026c-0.04365,0.08622 -0.10277,0.16404 -0.17217,0.23115c-0.0581,-0.00477 -0.11699,-0.02676 -0.15865,-0.06854l0,0zm0.16152,0.06947c0.15253,-0.14702 0.263,-0.35831 0.23003,-0.57497c-0.01312,-0.10147 -0.05017,-0.1995 -0.10566,-0.28534c0.10162,0.06333 0.15813,0.17549 0.20896,0.27969c0.07306,0.18211 0.03334,0.40408 -0.09723,0.54963c-0.06705,0.03803 -0.16167,0.04385 -0.2361,0.03098l0,0.00001zm0.25112,-0.034c0.05233,-0.09141 0.1117,-0.18407 0.11715,-0.29251c0.00813,-0.03626 -0.00448,0.07114 -0.00886,0.09374c-0.01392,0.0798 -0.03209,0.16497 -0.08155,0.23008c-0.01138,-0.00631 -0.0063,-0.03705 -0.02675,-0.03131l0,0l0.00001,0z" id="svg_367"/>
    <!-- Created with Method Draw - http://github.com/duopixel/Method-Draw/ -->
    <g stroke="null" id="svg_356">
     <path stroke="null" d="m6222.62197,6263.34421l-331.52622,0c-11.95733,0 -21.65103,-8.47988 -21.65103,-18.93994l0,-393.25854c0,-10.46006 9.6937,-18.93994 21.65103,-18.93994l262.61367,0l90.55982,75.32555l0,336.87293c0.00375,10.46006 -9.68995,18.93994 -21.64727,18.93994zm0,0" fill="#f4f4f4" id="svg_366"/>
     <path stroke="null" d="m6153.70943,5832.2058l-38.9365,0l90.55981,75.32555l0,336.87293c0,10.46006 -9.68995,18.93994 -21.65103,18.93994l38.93651,0c11.95733,0 21.65103,-8.47988 21.65103,-18.93994l0,-336.87293l-90.55982,-75.32555zm0,0" fill="#e8e8e8" id="svg_365"/>
     <path stroke="null" d="m6205.33273,5875.14465l-51.62331,-42.93885l-262.61367,0c-11.95733,0 -21.65103,8.47988 -21.65103,18.93994l0,23.99892l335.88801,0l0,-0.00001zm0,0" fill="#f6d867" id="svg_364"/>
     <path stroke="null" d="m6125.28258,5875.14465l80.05015,0l-51.62331,-42.93885l-28.42685,0l0,42.93885l0.00001,0zm0,0" fill="#e0c55e" id="svg_363"/>
     <path stroke="null" d="m6153.70943,5832.2058l0,56.38561c0,10.46005 9.69371,18.93994 21.65103,18.93994l68.91255,0l-90.56358,-75.32555zm0,0" fill="#dedcdd" id="svg_362"/>
     <path stroke="null" d="m5869.44472,6143.37266l0,101.03162c0,10.46006 9.6937,18.93994 21.65103,18.93994l331.52622,0c11.95732,0 21.65103,-8.47988 21.65103,-18.93994l0,-101.03162l-374.82828,0zm0,0" fill="#f6d867" id="svg_361"/>
     <path stroke="null" d="m6205.33273,6244.40427c0,10.46006 -9.68995,18.93994 -21.65103,18.93994l38.93651,0c11.94228,0 21.65103,-8.46343 21.65103,-18.93994l0,-101.03162l-38.93651,0l0,101.03162zm0,0" fill="#e0c55e" id="svg_360"/>
     <g stroke="null" fill="#495663" id="svg_357" transform="matrix(0.962602213302215,0,0,0.8420672030203461,-3378.705605468122,-3157.893904957406) ">
      <path stroke="null" d="m9767.59192,11152.25724c14.45703,0 26.17578,-11.49219 26.17578,-25.67578l0,-37.65234c0,-3.39454 -2.75,-6.14454 -6.14062,-6.14454c-3.39063,0 -6.14063,2.75 -6.14063,6.14454l0,37.65234c0,15.84375 -22.63281,19.44531 -27.18359,3.75c-0.73828,-2.55078 -3.08594,-4.41406 -5.875,-4.41406c-4.10156,0 -7.02734,3.98828 -5.85938,7.90234c3.23047,10.83203 13.25,18.4375 25.02344,18.4375zm0,0" id="svg_359"/>
      <path stroke="null" d="m9834.65833,11140.47599c-6.72656,0 -13.33203,-2.49219 -19.17969,-5.46094c-3.95312,-2.01562 -8.63281,0.875 -8.63281,5.30078c0,2.23047 1.23437,4.17969 3.05469,5.19922c22.9375,12.72657 52.04296,6.71875 52.04296,-13.79687c0,-15.20313 -14.90234,-18.32422 -27.6914,-20.64063c-8.46875,-1.53515 -14.19531,-2.3164 -14.22266,-7.89453c-0.01953,-4.6914 4.05469,-9.625 14.32422,-9.625c11.86719,0 17.30078,5.78125 20.99609,5.78125c6.10547,0 8.21094,-8.23047 2.78125,-11.125c-27.23437,-14.52344 -50.35546,-2.46484 -50.38281,15.48047c-0.02734,16.34375 16.03516,18.76172 26.50391,20.47266c9.67187,1.57812 15.40625,2.61718 15.44922,7.94531c0.0664,7.05469 -10.21094,8.36328 -15.04297,8.36328zm0,0" id="svg_358"/>
     </g>
    </g>
   </g>
  </g>
 </g>
</svg>